<?xml version="1.0" encoding="UTF-8"?>
<svg width="400" height="400" viewBox="0 0 400 400" xmlns="http://www.w3.org/2000/svg">
  <defs>
    <linearGradient id="gold" x1="0%" y1="0%" x2="0%" y2="100%">
      <stop offset="0%" stop-color="#FDCC4E"/>
      <stop offset="100%" stop-color="#D4930D"/>
    </linearGradient>
  </defs>

  <!-- Clean circle background -->
  <circle cx="200" cy="200" r="200" fill="#0A1628"/>

  <!-- Shield outline - clean single stroke -->
  <path d="M200 62 L298 112 L298 198 C298 256 254 302 200 340 C146 302 102 256 102 198 L102 112 Z" 
        fill="none" stroke="url(#gold)" stroke-width="4" stroke-linejoin="round"/>

  <!-- Dollar sign -->
  <g transform="translate(200,192)">
    <path d="M24,-24 C24,-38 13,-46 0,-46 C-13,-46 -24,-38 -24,-24 C-24,-10 -13,-4 0,2 C13,8 24,14 24,28 C24,42 13,46 0,46 C-13,46 -24,42 -24,28" 
          fill="none" stroke="url(#gold)" stroke-width="7" stroke-linecap="round"/>
    <line x1="0" y1="-56" x2="0" y2="56" stroke="url(#gold)" stroke-width="4" stroke-linecap="round"/>
  </g>

  <!-- $PROTECT -->
  <text x="200" y="368" text-anchor="middle" fill="#F5A623" 
        font-family="'Helvetica Neue', Arial, sans-serif" 
        font-size="20" font-weight="700" letter-spacing="5">$PROTECT</text>
</svg>
